solid 
 facet normal  0.000000e+00 -1.000000e+00  0.000000e+00
   outer loop
     vertex -8.786923e-02 -1.700000e+00  3.983325e-01
     vertex -1.106021e-01 -1.700000e+00  3.438157e-01
     vertex -1.114210e-01 -1.700000e+00  3.338894e-01
   endloop
 endfacet
 facet normal  0.000000e+00 -1.000000e+00  0.000000e+00
   outer loop
     vertex -8.786923e-02 -1.700000e+00  3.983325e-01
     vertex -1.089006e-01 -1.700000e+00  3.536293e-01
     vertex -1.106021e-01 -1.700000e+00  3.438157e-01
   endloop
 endfacet
 facet normal  0.000000e+00 -1.000000e+00  0.000000e+00
   outer loop
     vertex -8.786923e-02 -1.700000e+00  3.983325e-01
     vertex -1.063302e-01 -1.700000e+00  3.632520e-01
     vertex -1.089006e-01 -1.700000e+00  3.536293e-01
   endloop
 endfacet
 facet normal  0.000000e+00 -1.000000e+00  0.000000e+00
   outer loop
     vertex -8.786923e-02 -1.700000e+00  3.983325e-01
     vertex -1.029113e-01 -1.700000e+00  3.726068e-01
     vertex -1.063302e-01 -1.700000e+00  3.632520e-01
   endloop
 endfacet
 facet normal  0.000000e+00 -1.000000e+00  0.000000e+00
   outer loop
     vertex -8.786923e-02 -1.700000e+00  3.983325e-01
     vertex -9.867126e-02 -1.700000e+00  3.816193e-01
     vertex -1.029113e-01 -1.700000e+00  3.726068e-01
   endloop
 endfacet
 facet normal  0.000000e+00 -1.000000e+00  0.000000e+00
   outer loop
     vertex -8.786923e-02 -1.700000e+00  3.983325e-01
     vertex -9.364386e-02 -1.700000e+00  3.902174e-01
     vertex -9.867126e-02 -1.700000e+00  3.816193e-01
   endloop
 endfacet
 facet normal  0.000000e+00 -1.000000e+00  0.000000e+00
   outer loop
     vertex  8.786923e-02 -1.700000e+00  3.983325e-01
     vertex  9.867126e-02 -1.700000e+00  3.816193e-01
     vertex  9.364386e-02 -1.700000e+00  3.902174e-01
   endloop
 endfacet
 facet normal  0.000000e+00 -1.000000e+00  0.000000e+00
   outer loop
     vertex  8.786923e-02 -1.700000e+00  3.983325e-01
     vertex  1.029113e-01 -1.700000e+00  3.726068e-01
     vertex  9.867126e-02 -1.700000e+00  3.816193e-01
   endloop
 endfacet
 facet normal  0.000000e+00 -1.000000e+00  0.000000e+00
   outer loop
     vertex  8.786923e-02 -1.700000e+00  3.983325e-01
     vertex  1.063302e-01 -1.700000e+00  3.632520e-01
     vertex  1.029113e-01 -1.700000e+00  3.726068e-01
   endloop
 endfacet
 facet normal  0.000000e+00 -1.000000e+00  0.000000e+00
   outer loop
     vertex  8.786923e-02 -1.700000e+00  3.983325e-01
     vertex  1.089006e-01 -1.700000e+00  3.536293e-01
     vertex  1.063302e-01 -1.700000e+00  3.632520e-01
   endloop
 endfacet
 facet normal  0.000000e+00 -1.000000e+00  0.000000e+00
   outer loop
     vertex  8.786923e-02 -1.700000e+00  3.983325e-01
     vertex  1.106021e-01 -1.700000e+00  3.438157e-01
     vertex  1.089006e-01 -1.700000e+00  3.536293e-01
   endloop
 endfacet
 facet normal  0.000000e+00 -1.000000e+00  0.000000e+00
   outer loop
     vertex  8.786923e-02 -1.700000e+00  3.983325e-01
     vertex  1.114210e-01 -1.700000e+00  3.338894e-01
     vertex  1.106021e-01 -1.700000e+00  3.438157e-01
   endloop
 endfacet
 facet normal  0.000000e+00 -1.000000e+00  0.000000e+00
   outer loop
     vertex  8.786923e-02 -1.700000e+00  3.983325e-01
     vertex  1.113509e-01 -1.700000e+00  3.239296e-01
     vertex  1.114210e-01 -1.700000e+00  3.338894e-01
   endloop
 endfacet
 facet normal  0.000000e+00 -1.000000e+00  0.000000e+00
   outer loop
     vertex  8.786923e-02 -1.700000e+00  3.983325e-01
     vertex  1.103922e-01 -1.700000e+00  3.140158e-01
     vertex  1.113509e-01 -1.700000e+00  3.239296e-01
   endloop
 endfacet
 facet normal  0.000000e+00 -1.000000e+00  0.000000e+00
   outer loop
     vertex  8.786923e-02 -1.700000e+00  3.983325e-01
     vertex  1.085527e-01 -1.700000e+00  3.042272e-01
     vertex  1.103922e-01 -1.700000e+00  3.140158e-01
   endloop
 endfacet
 facet normal  0.000000e+00 -1.000000e+00  0.000000e+00
   outer loop
     vertex  8.786923e-02 -1.700000e+00  3.983325e-01
     vertex  1.058470e-01 -1.700000e+00  2.946417e-01
     vertex  1.085527e-01 -1.700000e+00  3.042272e-01
   endloop
 endfacet
 facet normal  0.000000e+00 -1.000000e+00  0.000000e+00
   outer loop
     vertex  8.786923e-02 -1.700000e+00  3.983325e-01
     vertex  1.022967e-01 -1.700000e+00  2.853359e-01
     vertex  1.058470e-01 -1.700000e+00  2.946417e-01
   endloop
 endfacet
 facet normal -0.000000e+00 -1.000000e+00  0.000000e+00
   outer loop
     vertex  8.786923e-02 -1.700000e+00  3.983325e-01
     vertex -8.786923e-02 -1.700000e+00  3.983325e-01
     vertex -1.114210e-01 -1.700000e+00  3.338894e-01
   endloop
 endfacet
 facet normal  0.000000e+00 -1.000000e+00  0.000000e+00
   outer loop
     vertex  8.786923e-02 -1.700000e+00  3.983325e-01
     vertex  9.793009e-02 -1.700000e+00  2.763841e-01
     vertex  1.022967e-01 -1.700000e+00  2.853359e-01
   endloop
 endfacet
 facet normal  0.000000e+00 -1.000000e+00  0.000000e+00
   outer loop
     vertex  8.786923e-02 -1.700000e+00  3.983325e-01
     vertex  9.278208e-02 -1.700000e+00  2.678576e-01
     vertex  9.793009e-02 -1.700000e+00  2.763841e-01
   endloop
 endfacet
 facet normal  0.000000e+00 -1.000000e+00 -0.000000e+00
   outer loop
     vertex  8.786923e-02 -1.700000e+00  3.983325e-01
     vertex  8.689373e-02 -1.700000e+00  2.598246e-01
     vertex  9.278208e-02 -1.700000e+00  2.678576e-01
   endloop
 endfacet
 facet normal  0.000000e+00 -1.000000e+00  0.000000e+00
   outer loop
     vertex  8.786923e-02 -1.700000e+00  3.983325e-01
     vertex  8.031201e-02 -1.700000e+00  2.523491e-01
     vertex  8.689373e-02 -1.700000e+00  2.598246e-01
   endloop
 endfacet
 facet normal  0.000000e+00 -1.000000e+00  0.000000e+00
   outer loop
     vertex  8.786923e-02 -1.700000e+00  3.983325e-01
     vertex  7.308945e-02 -1.700000e+00  2.454908e-01
     vertex  8.031201e-02 -1.700000e+00  2.523491e-01
   endloop
 endfacet
 facet normal  0.000000e+00 -1.000000e+00  0.000000e+00
   outer loop
     vertex  8.786923e-02 -1.700000e+00  3.983325e-01
     vertex  6.528367e-02 -1.700000e+00  2.393043e-01
     vertex  7.308945e-02 -1.700000e+00  2.454908e-01
   endloop
 endfacet
 facet normal  0.000000e+00 -1.000000e+00  0.000000e+00
   outer loop
     vertex  8.786923e-02 -1.700000e+00  3.983325e-01
     vertex  5.695698e-02 -1.700000e+00  2.338391e-01
     vertex  6.528367e-02 -1.700000e+00  2.393043e-01
   endloop
 endfacet
 facet normal  0.000000e+00 -1.000000e+00  0.000000e+00
   outer loop
     vertex  8.786923e-02 -1.700000e+00  3.983325e-01
     vertex  4.817579e-02 -1.700000e+00  2.291388e-01
     vertex  5.695698e-02 -1.700000e+00  2.338391e-01
   endloop
 endfacet
 facet normal  0.000000e+00 -1.000000e+00  0.000000e+00
   outer loop
     vertex  8.786923e-02 -1.700000e+00  3.983325e-01
     vertex  3.901020e-02 -1.700000e+00  2.252409e-01
     vertex  4.817579e-02 -1.700000e+00  2.291388e-01
   endloop
 endfacet
 facet normal  0.000000e+00 -1.000000e+00  0.000000e+00
   outer loop
     vertex  8.786923e-02 -1.700000e+00  3.983325e-01
     vertex  2.953332e-02 -1.700000e+00  2.221764e-01
     vertex  3.901020e-02 -1.700000e+00  2.252409e-01
   endloop
 endfacet
 facet normal  0.000000e+00 -1.000000e+00  0.000000e+00
   outer loop
     vertex  8.786923e-02 -1.700000e+00  3.983325e-01
     vertex  1.982078e-02 -1.700000e+00  2.199699e-01
     vertex  2.953332e-02 -1.700000e+00  2.221764e-01
   endloop
 endfacet
 facet normal  0.000000e+00 -1.000000e+00  0.000000e+00
   outer loop
     vertex  8.786923e-02 -1.700000e+00  3.983325e-01
     vertex  9.950090e-03 -1.700000e+00  2.186389e-01
     vertex  1.982078e-02 -1.700000e+00  2.199699e-01
   endloop
 endfacet
 facet normal  0.000000e+00 -1.000000e+00  0.000000e+00
   outer loop
     vertex  8.786923e-02 -1.700000e+00  3.983325e-01
     vertex  1.646538e-17 -1.700000e+00  2.181940e-01
     vertex  9.950090e-03 -1.700000e+00  2.186389e-01
   endloop
 endfacet
 facet normal  0.000000e+00 -1.000000e+00  0.000000e+00
   outer loop
     vertex  8.786923e-02 -1.700000e+00  3.983325e-01
     vertex -9.950090e-03 -1.700000e+00  2.186389e-01
     vertex  1.646538e-17 -1.700000e+00  2.181940e-01
   endloop
 endfacet
 facet normal  0.000000e+00 -1.000000e+00  0.000000e+00
   outer loop
     vertex  8.786923e-02 -1.700000e+00  3.983325e-01
     vertex -1.982078e-02 -1.700000e+00  2.199699e-01
     vertex -9.950090e-03 -1.700000e+00  2.186389e-01
   endloop
 endfacet
 facet normal  0.000000e+00 -1.000000e+00  0.000000e+00
   outer loop
     vertex  8.786923e-02 -1.700000e+00  3.983325e-01
     vertex -2.953332e-02 -1.700000e+00  2.221764e-01
     vertex -1.982078e-02 -1.700000e+00  2.199699e-01
   endloop
 endfacet
 facet normal  0.000000e+00 -1.000000e+00  0.000000e+00
   outer loop
     vertex  8.786923e-02 -1.700000e+00  3.983325e-01
     vertex -3.901020e-02 -1.700000e+00  2.252409e-01
     vertex -2.953332e-02 -1.700000e+00  2.221764e-01
   endloop
 endfacet
 facet normal  0.000000e+00 -1.000000e+00  0.000000e+00
   outer loop
     vertex  8.786923e-02 -1.700000e+00  3.983325e-01
     vertex -4.817579e-02 -1.700000e+00  2.291388e-01
     vertex -3.901020e-02 -1.700000e+00  2.252409e-01
   endloop
 endfacet
 facet normal  0.000000e+00 -1.000000e+00  0.000000e+00
   outer loop
     vertex  8.786923e-02 -1.700000e+00  3.983325e-01
     vertex -5.695698e-02 -1.700000e+00  2.338391e-01
     vertex -4.817579e-02 -1.700000e+00  2.291388e-01
   endloop
 endfacet
 facet normal  0.000000e+00 -1.000000e+00  0.000000e+00
   outer loop
     vertex  8.786923e-02 -1.700000e+00  3.983325e-01
     vertex -6.528367e-02 -1.700000e+00  2.393043e-01
     vertex -5.695698e-02 -1.700000e+00  2.338391e-01
   endloop
 endfacet
 facet normal  0.000000e+00 -1.000000e+00  0.000000e+00
   outer loop
     vertex  8.786923e-02 -1.700000e+00  3.983325e-01
     vertex -7.308945e-02 -1.700000e+00  2.454908e-01
     vertex -6.528367e-02 -1.700000e+00  2.393043e-01
   endloop
 endfacet
 facet normal  0.000000e+00 -1.000000e+00  0.000000e+00
   outer loop
     vertex  8.786923e-02 -1.700000e+00  3.983325e-01
     vertex -8.031201e-02 -1.700000e+00  2.523491e-01
     vertex -7.308945e-02 -1.700000e+00  2.454908e-01
   endloop
 endfacet
 facet normal  0.000000e+00 -1.000000e+00  0.000000e+00
   outer loop
     vertex  8.786923e-02 -1.700000e+00  3.983325e-01
     vertex -8.689373e-02 -1.700000e+00  2.598246e-01
     vertex -8.031201e-02 -1.700000e+00  2.523491e-01
   endloop
 endfacet
 facet normal  0.000000e+00 -1.000000e+00  0.000000e+00
   outer loop
     vertex  8.786923e-02 -1.700000e+00  3.983325e-01
     vertex -9.278208e-02 -1.700000e+00  2.678576e-01
     vertex -8.689373e-02 -1.700000e+00  2.598246e-01
   endloop
 endfacet
 facet normal  0.000000e+00 -1.000000e+00  0.000000e+00
   outer loop
     vertex  8.786923e-02 -1.700000e+00  3.983325e-01
     vertex -9.793009e-02 -1.700000e+00  2.763841e-01
     vertex -9.278208e-02 -1.700000e+00  2.678576e-01
   endloop
 endfacet
 facet normal  0.000000e+00 -1.000000e+00  0.000000e+00
   outer loop
     vertex  8.786923e-02 -1.700000e+00  3.983325e-01
     vertex -1.022967e-01 -1.700000e+00  2.853359e-01
     vertex -9.793009e-02 -1.700000e+00  2.763841e-01
   endloop
 endfacet
 facet normal  0.000000e+00 -1.000000e+00  0.000000e+00
   outer loop
     vertex  8.786923e-02 -1.700000e+00  3.983325e-01
     vertex -1.058470e-01 -1.700000e+00  2.946417e-01
     vertex -1.022967e-01 -1.700000e+00  2.853359e-01
   endloop
 endfacet
 facet normal  0.000000e+00 -1.000000e+00  0.000000e+00
   outer loop
     vertex  8.786923e-02 -1.700000e+00  3.983325e-01
     vertex -1.085527e-01 -1.700000e+00  3.042272e-01
     vertex -1.058470e-01 -1.700000e+00  2.946417e-01
   endloop
 endfacet
 facet normal  0.000000e+00 -1.000000e+00  0.000000e+00
   outer loop
     vertex  8.786923e-02 -1.700000e+00  3.983325e-01
     vertex -1.103922e-01 -1.700000e+00  3.140158e-01
     vertex -1.085527e-01 -1.700000e+00  3.042272e-01
   endloop
 endfacet
 facet normal  0.000000e+00 -1.000000e+00  0.000000e+00
   outer loop
     vertex  8.786923e-02 -1.700000e+00  3.983325e-01
     vertex -1.113509e-01 -1.700000e+00  3.239296e-01
     vertex -1.103922e-01 -1.700000e+00  3.140158e-01
   endloop
 endfacet
 facet normal  0.000000e+00 -1.000000e+00  0.000000e+00
   outer loop
     vertex  8.786923e-02 -1.700000e+00  3.983325e-01
     vertex -1.114210e-01 -1.700000e+00  3.338894e-01
     vertex -1.113509e-01 -1.700000e+00  3.239296e-01
   endloop
 endfacet
 facet normal  0.000000e+00 -1.000000e+00 -0.000000e+00
   outer loop
     vertex  8.139346e-02 -1.700000e+00  4.059000e-01
     vertex -8.786923e-02 -1.700000e+00  3.983325e-01
     vertex  8.786923e-02 -1.700000e+00  3.983325e-01
   endloop
 endfacet
 facet normal -0.000000e+00 -1.000000e+00  0.000000e+00
   outer loop
     vertex  8.139346e-02 -1.700000e+00  4.059000e-01
     vertex -8.139346e-02 -1.700000e+00  4.059000e-01
     vertex -8.786923e-02 -1.700000e+00  3.983325e-01
   endloop
 endfacet
endsolid
