solid 
 facet normal -0.000000e+00 -1.000000e+00  0.000000e+00
   outer loop
     vertex  7.550453e-02 -1.700000e+00  4.117386e-01
     vertex -6.919795e-02 -1.700000e+00  4.171234e-01
     vertex -7.550453e-02 -1.700000e+00  4.117386e-01
   endloop
 endfacet
 facet normal  0.000000e+00 -1.000000e+00  0.000000e+00
   outer loop
     vertex  7.550453e-02 -1.700000e+00  4.117386e-01
     vertex -6.250860e-02 -1.700000e+00  4.220245e-01
     vertex -6.919795e-02 -1.700000e+00  4.171234e-01
   endloop
 endfacet
 facet normal  0.000000e+00 -1.000000e+00  0.000000e+00
   outer loop
     vertex  7.550453e-02 -1.700000e+00  4.117386e-01
     vertex -5.547348e-02 -1.700000e+00  4.264150e-01
     vertex -6.250860e-02 -1.700000e+00  4.220245e-01
   endloop
 endfacet
 facet normal  0.000000e+00 -1.000000e+00  0.000000e+00
   outer loop
     vertex  7.550453e-02 -1.700000e+00  4.117386e-01
     vertex -4.813151e-02 -1.700000e+00  4.302704e-01
     vertex -5.547348e-02 -1.700000e+00  4.264150e-01
   endloop
 endfacet
 facet normal  0.000000e+00 -1.000000e+00  0.000000e+00
   outer loop
     vertex  7.550453e-02 -1.700000e+00  4.117386e-01
     vertex -4.052331e-02 -1.700000e+00  4.335695e-01
     vertex -4.813151e-02 -1.700000e+00  4.302704e-01
   endloop
 endfacet
 facet normal  0.000000e+00 -1.000000e+00  0.000000e+00
   outer loop
     vertex  7.550453e-02 -1.700000e+00  4.117386e-01
     vertex -3.269095e-02 -1.700000e+00  4.362940e-01
     vertex -4.052331e-02 -1.700000e+00  4.335695e-01
   endloop
 endfacet
 facet normal  0.000000e+00 -1.000000e+00  0.000000e+00
   outer loop
     vertex  7.550453e-02 -1.700000e+00  4.117386e-01
     vertex -2.467776e-02 -1.700000e+00  4.384288e-01
     vertex -3.269095e-02 -1.700000e+00  4.362940e-01
   endloop
 endfacet
 facet normal  0.000000e+00 -1.000000e+00  0.000000e+00
   outer loop
     vertex  7.550453e-02 -1.700000e+00  4.117386e-01
     vertex -1.652807e-02 -1.700000e+00  4.399622e-01
     vertex -2.467776e-02 -1.700000e+00  4.384288e-01
   endloop
 endfacet
 facet normal  0.000000e+00 -1.000000e+00  0.000000e+00
   outer loop
     vertex  7.550453e-02 -1.700000e+00  4.117386e-01
     vertex -8.286956e-03 -1.700000e+00  4.408856e-01
     vertex -1.652807e-02 -1.700000e+00  4.399622e-01
   endloop
 endfacet
 facet normal  0.000000e+00 -1.000000e+00  0.000000e+00
   outer loop
     vertex  7.550453e-02 -1.700000e+00  4.117386e-01
     vertex -1.235310e-16 -1.700000e+00  4.411940e-01
     vertex -8.286956e-03 -1.700000e+00  4.408856e-01
   endloop
 endfacet
 facet normal  0.000000e+00 -1.000000e+00  0.000000e+00
   outer loop
     vertex  7.550453e-02 -1.700000e+00  4.117386e-01
     vertex  8.286956e-03 -1.700000e+00  4.408856e-01
     vertex -1.235310e-16 -1.700000e+00  4.411940e-01
   endloop
 endfacet
 facet normal  0.000000e+00 -1.000000e+00  0.000000e+00
   outer loop
     vertex  7.550453e-02 -1.700000e+00  4.117386e-01
     vertex  1.652807e-02 -1.700000e+00  4.399622e-01
     vertex  8.286956e-03 -1.700000e+00  4.408856e-01
   endloop
 endfacet
 facet normal  0.000000e+00 -1.000000e+00  0.000000e+00
   outer loop
     vertex  7.550453e-02 -1.700000e+00  4.117386e-01
     vertex  2.467776e-02 -1.700000e+00  4.384288e-01
     vertex  1.652807e-02 -1.700000e+00  4.399622e-01
   endloop
 endfacet
 facet normal  0.000000e+00 -1.000000e+00  0.000000e+00
   outer loop
     vertex  7.550453e-02 -1.700000e+00  4.117386e-01
     vertex  3.269095e-02 -1.700000e+00  4.362940e-01
     vertex  2.467776e-02 -1.700000e+00  4.384288e-01
   endloop
 endfacet
 facet normal  0.000000e+00 -1.000000e+00  0.000000e+00
   outer loop
     vertex  7.550453e-02 -1.700000e+00  4.117386e-01
     vertex  4.052331e-02 -1.700000e+00  4.335695e-01
     vertex  3.269095e-02 -1.700000e+00  4.362940e-01
   endloop
 endfacet
 facet normal  0.000000e+00 -1.000000e+00  0.000000e+00
   outer loop
     vertex  7.550453e-02 -1.700000e+00  4.117386e-01
     vertex  4.813151e-02 -1.700000e+00  4.302704e-01
     vertex  4.052331e-02 -1.700000e+00  4.335695e-01
   endloop
 endfacet
 facet normal  0.000000e+00 -1.000000e+00  0.000000e+00
   outer loop
     vertex  7.550453e-02 -1.700000e+00  4.117386e-01
     vertex  5.547348e-02 -1.700000e+00  4.264150e-01
     vertex  4.813151e-02 -1.700000e+00  4.302704e-01
   endloop
 endfacet
 facet normal  0.000000e+00 -1.000000e+00  0.000000e+00
   outer loop
     vertex  7.550453e-02 -1.700000e+00  4.117386e-01
     vertex  6.250860e-02 -1.700000e+00  4.220245e-01
     vertex  5.547348e-02 -1.700000e+00  4.264150e-01
   endloop
 endfacet
 facet normal  0.000000e+00 -1.000000e+00  0.000000e+00
   outer loop
     vertex  7.550453e-02 -1.700000e+00  4.117386e-01
     vertex  6.919795e-02 -1.700000e+00  4.171234e-01
     vertex  6.250860e-02 -1.700000e+00  4.220245e-01
   endloop
 endfacet
 facet normal  0.000000e+00 -1.000000e+00  0.000000e+00
   outer loop
     vertex  8.139346e-02 -1.700000e+00  4.059000e-01
     vertex -7.550453e-02 -1.700000e+00  4.117386e-01
     vertex -8.139346e-02 -1.700000e+00  4.059000e-01
   endloop
 endfacet
 facet normal  0.000000e+00 -1.000000e+00  0.000000e+00
   outer loop
     vertex  8.139346e-02 -1.700000e+00  4.059000e-01
     vertex  7.550453e-02 -1.700000e+00  4.117386e-01
     vertex -7.550453e-02 -1.700000e+00  4.117386e-01
   endloop
 endfacet
endsolid
